<?xml version="1.0" encoding="iso-8859-1"?>
<!-- Generator: Adobe Illustrator 19.0.0, SVG Export Plug-In . SVG Version: 6.00 Build 0)  -->
<svg version="1.1" id="Capa_1" xmlns="http://www.w3.org/2000/svg" xmlns:xlink="http://www.w3.org/1999/xlink" x="0px" y="0px"
	 viewBox="0 0 447.506 447.506" style="enable-background:new 0 0 447.506 447.506;" xml:space="preserve">
<path style="fill:#4DCFE0;" d="M308.767,265.056L183.902,139.669c-2.09-1.567-3.657-3.657-4.702-6.269s-1.567-4.702-1.567-7.314
	l-30.825,86.204L7.837,350.738c-10.449,10.449-10.449,26.645,0,36.571l52.245,52.245c5.224,5.224,12.016,7.837,18.286,7.837
	c6.269,0,13.061-2.612,18.286-7.837l138.971-138.971l85.159-30.824c-0.522,0-1.045,0-1.045,0
	C316.082,269.758,311.902,268.191,308.767,265.056z"/>
<g>
	<path style="fill:#3A2C51;" d="M331.233,116.158c3.135,3.135,6.792,4.702,10.971,4.702s7.837-1.567,10.971-4.702l44.408-44.408
		c6.269-5.747,6.269-15.673,0-21.943c-5.747-6.269-15.673-6.269-21.943,0l-44.408,44.408
		C324.963,99.963,324.963,109.889,331.233,116.158z"/>
	<path style="fill:#3A2C51;" d="M445.649,113.024c-4.18-7.837-13.584-10.971-21.42-6.792l-48.588,25.6
		c-7.837,4.18-10.971,13.584-6.792,21.42c3.135,5.224,8.359,8.359,14.106,8.359c2.612,0,5.224-0.522,7.314-1.567l48.588-25.6
		C446.694,130.265,449.829,120.861,445.649,113.024z"/>
	<path style="fill:#3A2C51;" d="M294.139,78.542c2.612,1.045,4.702,1.567,7.314,1.567c5.747,0,10.971-3.135,14.106-8.359
		l25.6-48.588c3.657-7.837,1.045-17.241-6.792-21.42c-7.837-3.657-17.241-1.045-21.42,6.792l-25.6,48.588
		C283.69,64.958,286.302,74.363,294.139,78.542z"/>
</g>
<path style="fill:#D4E1F4;" d="M249.208,71.75c-6.269-6.269-16.196-6.269-21.943,0l-44.931,44.408
	c-3.135,3.135-4.18,6.269-4.702,9.927c0,2.09,0.522,4.702,1.567,7.314c1.045,2.612,2.612,4.702,4.702,6.269l124.865,125.388
	c3.135,3.135,7.314,4.702,10.971,4.702c0.522,0,1.045,0,1.045,0c3.657-0.522,6.792-1.567,9.927-4.702l44.931-44.408
	c3.135-3.135,4.702-6.792,4.702-10.971c0-4.18-1.567-8.882-4.702-11.494L249.208,71.75z"/>
<path style="fill:#00BBD3;" d="M156.735,268.714l-29.78,29.78c-6.269,5.747-6.269,15.673,0,21.943
	c3.135,3.135,6.792,4.702,10.971,4.702c4.18,0,7.837-1.567,10.971-4.702l29.78-29.78c6.269-5.747,6.269-15.673,0-21.943
	C172.931,262.444,163.004,262.444,156.735,268.714z"/>
<g>
</g>
<g>
</g>
<g>
</g>
<g>
</g>
<g>
</g>
<g>
</g>
<g>
</g>
<g>
</g>
<g>
</g>
<g>
</g>
<g>
</g>
<g>
</g>
<g>
</g>
<g>
</g>
<g>
</g>
</svg>
